<svg id="visual" viewBox="0 0 900 600" width="900" height="600" xmlns="http://www.w3.org/2000/svg" xmlns:xlink="http://www.w3.org/1999/xlink" version="1.1"><rect x="0" y="0" width="900" height="600" fill="#242b3e"></rect><path d="M0 188L30 191.8C60 195.7 120 203.3 180 204.3C240 205.3 300 199.7 360 202.8C420 206 480 218 540 217C600 216 660 202 720 204.2C780 206.3 840 224.7 870 233.8L900 243L900 0L870 0C840 0 780 0 720 0C660 0 600 0 540 0C480 0 420 0 360 0C300 0 240 0 180 0C120 0 60 0 30 0L0 0Z" fill="#f5d08c"></path><path d="M0 186L30 184C60 182 120 178 180 179.5C240 181 300 188 360 187.7C420 187.3 480 179.7 540 178.5C600 177.3 660 182.7 720 179.3C780 176 840 164 870 158L900 152L900 0L870 0C840 0 780 0 720 0C660 0 600 0 540 0C480 0 420 0 360 0C300 0 240 0 180 0C120 0 60 0 30 0L0 0Z" fill="#f1c672"></path><path d="M0 116L30 118.7C60 121.3 120 126.7 180 129C240 131.3 300 130.7 360 127.7C420 124.7 480 119.3 540 117.8C600 116.3 660 118.7 720 123.5C780 128.3 840 135.7 870 139.3L900 143L900 0L870 0C840 0 780 0 720 0C660 0 600 0 540 0C480 0 420 0 360 0C300 0 240 0 180 0C120 0 60 0 30 0L0 0Z" fill="#edbb58"></path><path d="M0 98L30 98.7C60 99.3 120 100.7 180 98C240 95.3 300 88.7 360 87.2C420 85.7 480 89.3 540 87.5C600 85.7 660 78.3 720 74.5C780 70.7 840 70.3 870 70.2L900 70L900 0L870 0C840 0 780 0 720 0C660 0 600 0 540 0C480 0 420 0 360 0C300 0 240 0 180 0C120 0 60 0 30 0L0 0Z" fill="#d0a24a"></path><path d="M0 38L30 38.3C60 38.7 120 39.3 180 38.5C240 37.7 300 35.3 360 37.7C420 40 480 47 540 46.7C600 46.3 660 38.7 720 35.7C780 32.7 840 34.3 870 35.2L900 36L900 0L870 0C840 0 780 0 720 0C660 0 600 0 540 0C480 0 420 0 360 0C300 0 240 0 180 0C120 0 60 0 30 0L0 0Z" fill="#b38a3c"></path></svg>